<svg width="36" height="36" viewBox="0 0 36 36" fill="none" xmlns="http://www.w3.org/2000/svg">
<rect width="36" height="36" rx="10" fill="#115AFB"/>
<path d="M22.7916 14.7042V13.493C22.7916 13.2864 22.6885 13.1831 22.4824 13.1831H21.3021C21.096 13.1831 20.993 13.2864 20.993 13.493V14.7042C20.993 14.892 21.096 14.9859 21.3021 14.9859H22.4824C22.6885 14.9859 22.7916 14.892 22.7916 14.7042ZM13.4895 22.8169H22.4824C22.6885 22.8169 22.7916 22.7136 22.7916 22.507V17.9886C22.7916 17.6682 22.5318 17.4085 22.2115 17.4085H22.1218C21.8104 17.4085 21.5831 17.6886 21.5831 18C21.5831 18.9953 21.2272 19.8498 20.5152 20.5634C19.822 21.2582 18.9789 21.6056 17.9859 21.6056C16.993 21.6056 16.1405 21.2582 15.4286 20.5634C14.7354 19.8498 14.3888 18.9953 14.3888 18C14.3888 17.692 14.1577 17.4085 13.8498 17.4085H13.7656C13.4579 17.4085 13.2084 17.6579 13.2084 17.9656V22.507C13.2084 22.7136 13.3021 22.8169 13.4895 22.8169ZM19.7002 16.3099C19.2318 15.8404 18.6604 15.6056 17.9859 15.6056C17.3302 15.6056 16.7681 15.8404 16.2998 16.3099C15.8314 16.7793 15.5972 17.3427 15.5972 18C15.5972 18.6573 15.8314 19.2207 16.2998 19.6901C16.7681 20.1596 17.3302 20.3944 17.9859 20.3944C18.6604 20.3944 19.2318 20.1596 19.7002 19.6901C20.1686 19.2207 20.4028 18.6573 20.4028 18C20.4028 17.3427 20.1686 16.7793 19.7002 16.3099ZM22.7916 12C23.1288 12 23.4098 12.1221 23.6347 12.3662C23.8782 12.5915 24 12.8638 24 13.1831V22.8169C24 23.1362 23.8782 23.4085 23.6347 23.6338C23.4098 23.8779 23.1288 24 22.7916 24H13.2084C12.8712 24 12.5808 23.8779 12.3372 23.6338C12.1124 23.4085 12 23.1362 12 22.8169V13.1831C12 12.8638 12.1124 12.5915 12.3372 12.3662C12.5808 12.1221 12.8712 12 13.2084 12H22.7916Z" fill="white"/>
</svg>
