<svg width="36" height="36" viewBox="0 0 36 36" fill="none" xmlns="http://www.w3.org/2000/svg">
<rect width="36" height="36" rx="10" fill="#4BA2EB"/>
<path d="M24.9935 14.3497C24.4429 14.5864 23.8923 14.7343 23.342 14.7937C23.9635 14.4208 24.3839 13.894 24.603 13.2133C24.0344 13.5506 23.4278 13.7814 22.7826 13.9058C22.2143 13.302 21.516 13 20.6871 13C19.894 13 19.2177 13.2796 18.6581 13.8391C18.0988 14.3985 17.8192 15.0747 17.8192 15.8678C17.8192 16.0809 17.8428 16.3 17.8902 16.5249C16.7181 16.4657 15.6186 16.1713 14.5915 15.6415C13.5645 15.1116 12.6929 14.4057 11.9766 13.5238C11.7162 13.9676 11.5859 14.4501 11.5859 14.971C11.5859 15.4623 11.7013 15.9182 11.9323 16.3385C12.1631 16.7587 12.474 17.099 12.8647 17.3595C12.4029 17.3417 11.9708 17.2203 11.5683 16.9954V17.0309C11.5683 17.7235 11.7859 18.3316 12.2209 18.8556C12.656 19.3796 13.205 19.7094 13.8679 19.8456C13.6193 19.9107 13.3677 19.9432 13.1132 19.9432C12.9474 19.9432 12.7669 19.9284 12.5716 19.8991C12.755 20.4731 13.0925 20.945 13.5837 21.3152C14.0751 21.6851 14.6315 21.8758 15.253 21.888C14.2113 22.7047 13.0245 23.1131 11.6926 23.1131C11.438 23.1131 11.2072 23.1015 11 23.0776C12.3319 23.9359 13.7999 24.365 15.4041 24.365C16.4222 24.365 17.3782 24.2039 18.2718 23.8812C19.1657 23.5587 19.9293 23.1265 20.5627 22.5848C21.196 22.0432 21.7422 21.4201 22.2008 20.7158C22.6596 20.0113 23.0013 19.2759 23.2264 18.5094C23.4513 17.7427 23.5638 16.9748 23.5638 16.2051C23.5638 16.0394 23.5608 15.9151 23.5549 15.8322C24.1173 15.424 24.5968 14.9296 24.9935 14.3497Z" fill="#F2F2F2"/>
</svg>
