<svg width="36" height="36" viewBox="0 0 36 36" fill="none" xmlns="http://www.w3.org/2000/svg">
<rect width="36" height="36" rx="10" fill="#EF5253"/>
<path d="M24.405 14.115C24.0252 13.4395 23.6131 13.3153 22.774 13.268C21.9358 13.2111 19.8279 13.1875 18.0017 13.1875C16.1721 13.1875 14.0634 13.2111 13.226 13.2671C12.3886 13.3153 11.9756 13.4386 11.5924 14.115C11.2012 14.7896 11 15.9516 11 17.9974C11 17.9991 11 18 11 18C11 18.0017 11 18.0026 11 18.0026V18.0044C11 20.0414 11.2012 21.2121 11.5924 21.8798C11.9756 22.5553 12.3877 22.6778 13.2251 22.7346C14.0634 22.7836 16.1721 22.8125 18.0017 22.8125C19.8279 22.8125 21.9358 22.7836 22.7749 22.7355C23.614 22.6786 24.0261 22.5561 24.4059 21.8806C24.8005 21.213 25 20.0422 25 18.0052C25 18.0052 25 18.0026 25 18.0009C25 18.0009 25 17.9991 25 17.9983C25 15.9516 24.8005 14.7896 24.405 14.115ZM16.25 20.625V15.375L20.625 18L16.25 20.625Z" fill="#F2F2F2"/>
</svg>
