<svg width="1442" height="846" viewBox="0 0 1442 846" fill="none" xmlns="http://www.w3.org/2000/svg">
<rect width="1440" height="888" transform="translate(0.000244141 -42)" fill="#FEFFFF"/>
<path opacity="0.9" d="M1606 414.741C1606 414.741 1324.49 395.725 1137.67 461.753C964.782 522.858 877.861 739.756 687.169 731.977C511.727 724.821 460.126 535.295 286.095 517.097C29.6109 490.276 4.32819 612.572 -252.999 634.33C-458.266 651.686 -742 517.097 -742 517.097" stroke="#F9D195" stroke-width="2"/>
<path opacity="0.9" d="M1668.31 588.223C1668.31 588.223 1356.63 668.799 1156.26 621.683C970.833 578.08 854.213 431.199 649.316 434.85C460.804 438.209 427.326 590.637 240.276 601.61C-35.3961 617.781 -66.1191 386.523 -342.456 369.249C-562.886 355.469 -959.615 425.555 -959.615 425.555" stroke="#115AFB" stroke-width="2"/>
<path opacity="0.9" d="M1897 614.068C1897 614.068 1530.43 548.308 1441.39 513.998C1352.35 479.689 1224.8 323.833 1003.77 330.061C800.415 335.792 696.829 482.747 495.111 497.32C197.823 518.797 59.7522 310.74 -238.514 293.317C-476.437 279.419 -831 375.292 -831 375.292" stroke="#43D8C3" stroke-width="2"/>
</svg>
