<svg width="437" height="395" viewBox="0 0 437 395" fill="none" xmlns="http://www.w3.org/2000/svg">
<path opacity="0.2" d="M187.099 273.099C252.277 273.099 305.115 220.279 305.115 155.122C305.115 89.9655 252.277 37.1455 187.099 37.1455C121.92 37.1455 69.0826 89.9655 69.0826 155.122C69.0826 220.279 121.92 273.099 187.099 273.099Z" fill="url(#paint0_linear)"/>
<path d="M234.724 236.738H245.714V246.679H234.724V236.738Z" fill="#020202" stroke="black"/>
<path opacity="0.1" d="M53.8069 370.332C69.7041 370.332 82.5914 357.449 82.5914 341.558C82.5914 325.666 69.7041 312.783 53.8069 312.783C37.9097 312.783 25.0225 325.666 25.0225 341.558C25.0225 357.449 37.9097 370.332 53.8069 370.332Z" fill="#007BFF"/>
<path opacity="0.1" d="M355.682 95.6246C361.607 95.6246 366.41 90.8228 366.41 84.8995C366.41 78.9761 361.607 74.1743 355.682 74.1743C349.756 74.1743 344.953 78.9761 344.953 84.8995C344.953 90.8228 349.756 95.6246 355.682 95.6246Z" fill="#007BFF"/>
<path opacity="0.1" d="M362.002 30.5174C366.482 30.5174 370.113 26.8867 370.113 22.4081C370.113 17.9295 366.482 14.2988 362.002 14.2988C357.521 14.2988 353.89 17.9295 353.89 22.4081C353.89 26.8867 357.521 30.5174 362.002 30.5174Z" fill="#007BFF"/>
<path opacity="0.08" d="M12.2988 24.5894C19.0912 24.5894 24.5976 19.0849 24.5976 12.2947C24.5976 5.50453 19.0912 0 12.2988 0C5.50636 0 0 5.50453 0 12.2947C0 19.0849 5.50636 24.5894 12.2988 24.5894Z" fill="#007BFF"/>
<path d="M254.576 100.477C237.6 114.225 217.957 123.062 196.77 127.691L200.706 137.858L164.219 153.222C160.852 145.647 157.204 138.212 153.416 130.777C149.487 122.922 145.138 115.207 140.227 107.912C135.317 100.898 129.844 94.1643 123.25 88.6935C116.796 83.2226 109.36 80.1364 101.222 78.0327C87.1284 74.3924 72.2479 73.5045 57.5689 73.4763L55.903 48.2932C66.5663 47.5918 77.3699 47.5918 88.0333 48.5738C108.518 50.3974 129.143 56.1486 145.979 68.3533C154.258 74.385 161.413 81.8199 166.885 90.5173C169.411 94.7257 171.656 99.0744 173.62 103.563C173.76 103.844 174.041 105.106 174.322 105.246C174.602 105.527 176.005 104.966 176.426 104.966C177.689 104.685 179.092 104.545 180.355 104.265C183.02 103.703 185.686 103.143 188.352 102.441C208.977 97.1104 228.48 86.449 243.914 71.72C251.349 64.5655 257.944 56.5698 263.275 47.8724C266.082 43.2431 267.946 40.4859 270.05 35.5762L295.433 44.9934C288.106 64.8742 271.273 86.8702 254.576 100.477V100.477Z" fill="white"/>
<path d="M217.8 249.728V221.813H294.688V301.492H217.8V268.666" stroke="#161D25" stroke-width="1.5" stroke-miterlimit="10" stroke-linecap="round" stroke-linejoin="round"/>
<path d="M217.8 268.666V301.492L199.42 287.604V265.3" stroke="#161D25" stroke-width="1.5" stroke-miterlimit="10" stroke-linecap="round" stroke-linejoin="round"/>
<path d="M199.42 244.679V208.065L217.8 221.813V249.728" stroke="#161D25" stroke-width="1.5" stroke-miterlimit="10" stroke-linecap="round" stroke-linejoin="round"/>
<path d="M240.67 208.065L258.91 221.813" stroke="#161D25" stroke-width="1.5" stroke-miterlimit="10" stroke-linecap="round" stroke-linejoin="round"/>
<path d="M294.688 221.813H217.8L199.42 208.065H276.308L294.688 221.813Z" stroke="#161D25" stroke-width="1.5" stroke-miterlimit="10" stroke-linecap="round" stroke-linejoin="round"/>
<path d="M270.977 192.916H281.499L300.862 226.022H266.487L247.124 192.916H264.662" fill="white"/>
<path d="M270.977 192.916H281.499L300.862 226.022H266.487L247.124 192.916H264.662" stroke="#161D25" stroke-width="1.5" stroke-miterlimit="10" stroke-linecap="round" stroke-linejoin="round"/>
<path d="M263.4 203.577H278.974" stroke="#161D25" stroke-width="1.5" stroke-miterlimit="10" stroke-linecap="round" stroke-linejoin="round"/>
<path d="M266.206 208.065H281.78" stroke="#161D25" stroke-width="1.5" stroke-miterlimit="10" stroke-linecap="round" stroke-linejoin="round"/>
<path d="M371.744 168.155L322.998 128.48L298.463 158.615L347.208 198.289L371.744 168.155Z" stroke="#161D25" stroke-width="1.5" stroke-miterlimit="10" stroke-linecap="round" stroke-linejoin="round"/>
<path d="M371.722 168.204L322.977 128.53L319.433 132.881L368.18 172.555L371.722 168.204Z" fill="#115AFB" stroke="#161D25" stroke-width="1.5" stroke-miterlimit="10" stroke-linecap="round" stroke-linejoin="round"/>
<path d="M344.777 172.153L324.573 155.741" stroke="#161D25" stroke-width="1.5" stroke-miterlimit="10" stroke-linecap="round" stroke-linejoin="round"/>
<path d="M348.846 167.104L328.642 150.691" stroke="#161D25" stroke-width="1.5" stroke-miterlimit="10" stroke-linecap="round" stroke-linejoin="round"/>
<path d="M259.892 394.357H290.759C290.759 394.357 290.339 379.628 290.759 372.474C291.18 365.32 268.451 376.682 268.451 376.682V385.66C268.451 385.66 259.892 387.063 259.892 394.357Z" fill="#161D25"/>
<path d="M416.053 390.709L428.68 362.513C428.68 362.513 415.07 356.762 408.757 353.535C402.443 350.309 403.425 375.559 403.425 375.559L411.703 379.206C411.563 379.206 409.318 387.623 416.053 390.709V390.709Z" fill="#161D25"/>
<path d="M412.966 353.675C381.116 341.05 373.4 301.771 374.242 270.63C374.522 261.091 365.262 257.443 358.246 259.828C356.002 258.986 353.336 258.846 350.811 259.267C298.055 268.104 267.889 326.881 267.609 376.681H291.461C292.022 338.805 312.086 294.477 350.529 283.816C352.494 321.691 367.366 361.25 404.127 375.98C406.933 368.404 409.739 360.97 412.966 353.675V353.675Z" fill="#115AFB"/>
<path d="M268.45 382.854H273.362" stroke="white" stroke-width="1.5" stroke-miterlimit="10" stroke-linecap="round" stroke-linejoin="round"/>
<path d="M407.073 377.242L409.599 371.912" stroke="white" stroke-width="1.5" stroke-miterlimit="10" stroke-linecap="round" stroke-linejoin="round"/>
<path d="M345.058 208.768C344.075 211.714 348.285 214.519 350.389 215.501C351.933 216.202 350.951 218.447 349.548 218.587C348.285 218.727 350.249 221.813 350.951 222.235L351.792 222.655C353.616 221.533 354.879 219.569 355.441 216.202C356.984 209.609 349.407 206.663 345.058 208.768V208.768Z" fill="#161D25"/>
<path d="M355.581 216.203C356.984 209.189 348.565 206.384 344.356 209.189C340.147 211.995 338.744 214.801 338.744 214.801L340.147 216.203C340.147 216.203 338.884 221.113 343.374 222.937L346.461 237.947L354.879 236.544L352.073 222.516C353.756 221.394 355.019 219.43 355.581 216.203V216.203Z" stroke="#161D25" stroke-width="1.5" stroke-miterlimit="10" stroke-linecap="round" stroke-linejoin="round"/>
<path d="M342.953 231.773C336.499 234.158 328.361 235.982 322.609 231.072C316.856 226.022 315.734 212.415 313.349 204.84C309.14 191.373 300.581 197.686 299.459 210.17C298.196 223.497 299.178 237.244 310.402 246.363C321.206 255.06 335.657 255.621 348.145 250.852C359.93 246.222 354.739 227.285 342.953 231.773V231.773Z" fill="white" stroke="#161D25" stroke-width="1.5" stroke-miterlimit="10" stroke-linecap="round" stroke-linejoin="round"/>
<path d="M342.953 231.773C336.499 234.158 328.361 235.982 322.609 231.072C317.277 226.443 316.014 214.519 313.91 206.804C309.14 210.451 304.228 213.818 299.037 216.904C298.757 227.986 301.001 238.788 310.402 246.363C321.205 255.06 335.657 255.621 348.145 250.852C359.93 246.222 354.739 227.285 342.953 231.773Z" fill="#161D25"/>
<path d="M347.302 229.95C366.945 229.95 367.507 232.475 370.313 245.1C373.119 257.725 374.803 268.527 374.803 268.527L336.92 263.056C336.92 263.056 335.237 250.852 333.833 243.837C332.43 236.824 331.869 229.95 347.302 229.95V229.95Z" fill="#161D25"/>
<path d="M336.359 262.213C336.359 262.213 334.675 250.009 333.272 242.995C332.43 238.787 331.869 234.859 334.815 232.193" stroke="white" stroke-width="1.5" stroke-miterlimit="10"/>
<path d="M344.496 247.063C335.938 270.77 298.336 273.436 281.499 257.724C272.379 249.027 258.349 262.914 267.609 271.612C295.67 298.124 349.828 290.129 363.438 252.393C367.787 240.47 348.706 235.279 344.496 247.063V247.063Z" fill="white" stroke="#161D25" stroke-width="1.5" stroke-miterlimit="10" stroke-linecap="round" stroke-linejoin="round"/>
<path d="M344.497 247.063C336.499 269.367 302.826 273.014 284.866 260.39C280.797 265.439 277.43 271.05 273.502 276.381C302.686 297.002 350.811 287.604 363.438 252.393C367.788 240.47 348.706 235.279 344.497 247.063Z" fill="#161D25"/>
<path d="M311.384 200.351C305.07 189.128 290.759 197.405 284.726 202.876C279.956 207.084 289.637 203.998 289.637 203.998C289.637 203.998 282.902 206.944 284.305 208.908C285.708 210.871 291.18 206.242 291.18 206.242C291.18 206.242 283.043 210.731 284.025 212.555C285.007 214.379 293.706 208.627 293.706 208.627C293.706 208.627 291.04 214.238 292.583 215.361C294.127 216.342 295.109 211.853 296.512 211.573C298.055 211.292 298.757 211.012 299.037 217.044" fill="white"/>
<path d="M311.384 200.351C305.07 189.128 290.759 197.405 284.726 202.876C279.956 207.084 289.637 203.998 289.637 203.998C289.637 203.998 282.902 206.944 284.305 208.908C285.708 210.871 291.18 206.242 291.18 206.242C291.18 206.242 283.043 210.731 284.025 212.555C285.007 214.379 293.706 208.627 293.706 208.627C293.706 208.627 291.04 214.238 292.583 215.361C294.127 216.342 295.109 211.853 296.512 211.573C298.055 211.292 298.757 211.012 299.037 217.044" stroke="#161D25" stroke-width="1.5" stroke-miterlimit="10" stroke-linecap="round" stroke-linejoin="round"/>
<path d="M298.897 199.368L285.989 215.08C285.427 215.781 284.305 218.306 284.726 218.867C285.287 219.429 287.532 217.605 288.093 216.903L301.001 201.192C302.264 199.79 300.02 197.966 298.897 199.368Z" fill="#161D25"/>
<path d="M267.749 271.613C261.295 265.02 252.596 258.988 253.859 256.603C254.981 254.078 261.576 259.689 261.576 259.689C261.576 259.689 254.28 253.657 255.542 251.833C256.805 250.01 263.961 255.2 263.961 255.2C263.961 255.2 257.507 250.571 258.91 248.046C260.313 245.521 264.522 251.132 268.31 250.992C272.099 250.851 266.206 244.258 269.573 243.697C271.397 243.416 281.639 257.725 281.639 257.725" fill="white"/>
<path d="M267.749 271.613C261.295 265.02 252.596 258.988 253.859 256.603C254.981 254.078 261.576 259.689 261.576 259.689C261.576 259.689 254.28 253.657 255.542 251.833C256.805 250.01 263.961 255.2 263.961 255.2C263.961 255.2 257.507 250.571 258.91 248.046C260.313 245.521 264.522 251.132 268.31 250.992C272.099 250.851 266.206 244.258 269.573 243.697C271.397 243.416 281.639 257.725 281.639 257.725" stroke="#161D25" stroke-width="1.5" stroke-miterlimit="10" stroke-linecap="round" stroke-linejoin="round"/>
<path d="M333.833 258.987C342.532 253.937 347.723 241.312 347.723 241.312" stroke="white" stroke-width="1.5" stroke-miterlimit="10" stroke-linecap="round"/>
<path d="M296.232 135.681C307.175 131.192 317.979 126.702 328.923 122.213C331.448 121.231 338.323 116.182 337.481 114.218C336.64 112.254 328.221 113.376 325.696 114.358C314.752 118.847 303.948 123.336 293.005 127.825C288.093 130.069 291.321 137.785 296.232 135.681V135.681Z" fill="#161D25"/>
<path d="M314.471 131.894L298.055 138.767L295.53 132.595" stroke="#161D25" stroke-width="1.5" stroke-miterlimit="10" stroke-linecap="round" stroke-linejoin="round"/>
<path d="M303.527 134.279L299.178 123.478" stroke="white" stroke-width="1.5" stroke-miterlimit="10" stroke-linecap="round" stroke-linejoin="round"/>
<path d="M330.326 123.477L325.976 112.816" stroke="white" stroke-width="1.5" stroke-miterlimit="10" stroke-linecap="round" stroke-linejoin="round"/>
<path d="M339.867 113.237L333.413 115.902" stroke="#161D25" stroke-width="1.5" stroke-miterlimit="10" stroke-linecap="round" stroke-linejoin="round"/>
<path d="M137.545 211.012C133.477 208.206 128.426 206.383 122.953 206.383C109.063 206.102 97.418 214.799 97.418 231.914C97.418 237.385 99.1017 242.575 101.907 246.643L137.545 211.012Z" fill="#020202" stroke="#161D25" stroke-width="1.5" stroke-miterlimit="10" stroke-linecap="round" stroke-linejoin="round"/>
<path d="M142.09 274.665L133.521 281.469L178.632 338.263L187.202 331.458L142.09 274.665Z" fill="#020202" stroke="#161D25" stroke-width="1.5" stroke-miterlimit="10" stroke-linecap="round" stroke-linejoin="round"/>
<path d="M288.234 200.211C287.953 182.676 282.201 165.702 268.731 153.778C254.841 141.433 234.777 137.085 216.678 138.628C214.293 138.909 211.767 139.189 209.382 139.61C208.26 139.891 207.137 140.171 205.874 140.451C205.313 140.592 204.752 140.732 204.19 140.873C203.77 141.013 202.928 141.433 202.507 141.433C201.946 141.433 201.384 139.189 201.104 138.487C200.683 137.225 200.262 136.103 199.701 134.84C198.859 132.456 197.877 130.071 197.035 127.827C218.221 123.197 237.864 114.359 254.841 100.612C271.538 87.0051 284.726 69.1898 293.425 49.4103C294.548 46.8853 295.53 44.3603 296.372 41.8353C296.793 40.713 297.213 39.5908 297.494 38.3282C297.635 37.9074 297.775 37.6269 297.775 37.206C297.915 36.5046 297.775 36.6449 298.476 36.3643C299.739 35.8032 301.002 35.5227 302.264 34.8213C303.387 34.1199 304.369 33.4185 305.351 32.5768C306.894 31.3143 308.157 29.7712 309.28 28.0879C300.44 25.7031 291.601 23.1781 282.762 20.7934C280.658 20.2322 278.412 19.5308 276.308 18.9697C275.185 24.0198 273.081 29.0698 270.976 33.8393C268.872 38.7491 266.346 43.3783 263.54 48.0075C258.208 56.7046 251.614 64.7009 244.178 71.8548C228.744 86.5844 209.242 97.2458 188.617 102.576C185.951 103.277 183.285 103.839 180.619 104.4C179.356 104.68 177.953 104.821 176.691 105.101C176.27 105.101 174.866 105.662 174.586 105.382C174.305 105.242 174.025 103.979 173.885 103.698C171.92 99.2093 169.675 94.8606 167.15 90.6527C161.678 81.9553 154.522 74.5204 146.244 68.4882C129.407 56.284 108.783 50.5325 88.2981 48.7089C77.6348 47.727 66.8312 47.727 56.1678 48.4284C53.3616 48.5686 50.6958 48.8492 47.8897 49.1297C47.4688 49.1297 45.6448 49.5506 45.3642 49.27C45.2239 49.1297 45.2239 48.8492 45.2239 48.7089C43.9612 46.4644 42.8387 44.6408 40.3132 43.5186C38.3489 42.6769 36.2443 42.2561 34.1397 42.2561C34.8413 48.9895 35.5428 55.7226 36.3846 62.3163C36.8056 65.8231 37.2265 69.4702 37.5071 72.9771C37.6474 73.9591 37.3667 74.2395 38.3489 74.0993C41.9969 73.8189 45.6448 73.6786 49.2928 73.6786C66.6909 73.3982 84.6498 73.8189 101.487 78.1675C109.624 80.2717 117.061 83.358 123.515 88.8289C130.109 94.2997 135.581 101.033 140.492 108.047C145.402 115.341 149.752 123.057 153.681 130.912C157.469 138.347 161.116 145.782 164.484 153.357C165.326 155.321 166.168 157.145 166.869 159.109C167.29 160.091 167.571 161.073 167.992 161.914C168.272 162.756 169.114 164.019 169.255 164.86C169.255 165.561 168.272 166.543 167.851 167.245C167.29 168.087 166.729 168.928 166.308 169.77C165.326 171.313 164.484 172.996 163.642 174.68C160.275 181.553 158.03 188.988 157.328 196.423C155.925 209.609 158.03 223.497 163.923 235.42C168.974 245.661 176.971 254.078 186.933 259.829C197.035 265.721 208.68 268.527 220.326 268.807C224.114 268.947 227.903 268.667 231.55 268.106C233.655 267.825 236.04 267.545 237.864 266.563C238.987 266.001 239.127 265.16 237.864 264.599C236.04 263.757 233.655 263.757 231.831 263.757C230.428 263.757 229.165 263.757 227.762 263.757C229.726 263.336 231.55 262.915 233.514 262.494C234.497 262.214 239.127 261.372 239.127 259.97C239.127 258.426 234.357 258.567 233.374 258.426C231.55 258.426 229.586 258.426 227.762 258.566C230.428 258.286 232.953 257.865 235.479 257.164C236.321 256.883 238.425 256.603 238.706 255.621C238.987 254.639 237.864 254.358 237.163 254.078C234.357 253.376 231.27 253.797 228.464 253.517C228.043 253.517 226.499 253.517 226.64 252.815C226.64 252.254 229.165 251.833 229.726 251.553C230.849 251.132 232.252 250.711 233.094 249.87C234.216 248.888 233.094 247.906 231.971 247.765C230.147 247.625 228.323 248.326 226.499 248.747C225.096 249.028 223.553 249.589 222.15 249.729C221.027 249.87 219.764 249.729 218.642 249.589C216.397 249.448 214.012 249.168 211.767 248.747C203.349 247.204 195.492 243.417 189.178 237.525C174.305 223.356 171.639 198.527 181.602 180.852C187.915 169.63 198.719 161.353 211.206 158.407C222.711 155.602 236.18 157.145 246.704 162.616C252.315 165.561 257.226 169.77 260.734 175.101C262.418 177.766 263.821 180.571 264.943 183.517C265.504 185.06 266.066 186.604 266.346 188.147C266.486 188.427 266.627 188.848 266.627 189.129C266.767 189.97 266.767 189.409 266.346 189.97C265.925 190.671 265.084 191.373 264.522 192.215C263.681 193.337 260.734 197.686 262.418 199.088C263.259 199.79 264.943 198.106 265.504 197.686C268.17 195.441 270.555 192.776 272.941 190.251C273.502 189.689 273.923 189.129 274.484 188.567" fill="white"/>
<path d="M288.234 200.211C287.953 182.676 282.201 165.702 268.731 153.778C254.841 141.433 234.777 137.085 216.678 138.628C214.293 138.909 211.767 139.189 209.382 139.61C208.26 139.891 207.137 140.171 205.874 140.451C205.313 140.592 204.752 140.732 204.19 140.873C203.77 141.013 202.928 141.433 202.507 141.433C201.946 141.433 201.384 139.189 201.104 138.487C200.683 137.225 200.262 136.103 199.701 134.84C198.859 132.456 197.877 130.071 197.035 127.827C218.221 123.197 237.864 114.359 254.841 100.612C271.538 87.0051 284.726 69.1898 293.425 49.4103C294.548 46.8853 295.53 44.3603 296.372 41.8353C296.793 40.713 297.213 39.5908 297.494 38.3282C297.635 37.9074 297.775 37.6269 297.775 37.206C297.915 36.5046 297.775 36.6449 298.476 36.3643C299.739 35.8032 301.002 35.5227 302.264 34.8213C303.387 34.1199 304.369 33.4185 305.351 32.5768C306.894 31.3143 308.157 29.7712 309.28 28.0879C300.44 25.7031 291.601 23.1781 282.762 20.7934C280.658 20.2322 278.412 19.5308 276.308 18.9697C275.185 24.0198 273.081 29.0698 270.976 33.8393C268.872 38.7491 266.346 43.3783 263.54 48.0075C258.208 56.7046 251.614 64.7009 244.178 71.8548C228.744 86.5844 209.242 97.2458 188.617 102.576C185.951 103.277 183.285 103.839 180.619 104.4C179.356 104.68 177.953 104.821 176.691 105.101C176.27 105.101 174.866 105.662 174.586 105.382C174.305 105.242 174.025 103.979 173.885 103.698C171.92 99.2093 169.675 94.8606 167.15 90.6527C161.678 81.9553 154.522 74.5204 146.244 68.4882C129.407 56.284 108.783 50.5325 88.2981 48.7089C77.6348 47.727 66.8312 47.727 56.1678 48.4284C53.3616 48.5686 50.6958 48.8492 47.8897 49.1297C47.4688 49.1297 45.6448 49.5506 45.3642 49.27C45.2239 49.1297 45.2239 48.8492 45.2239 48.7089C43.9612 46.4644 42.8387 44.6408 40.3132 43.5186C38.3489 42.6769 36.2443 42.2561 34.1397 42.2561C34.8413 48.9895 35.5428 55.7226 36.3846 62.3163C36.8056 65.8231 37.2265 69.4702 37.5071 72.9771C37.6474 73.9591 37.3667 74.2395 38.3489 74.0993C41.9969 73.8189 45.6448 73.6786 49.2928 73.6786C66.6909 73.3982 84.6498 73.8189 101.487 78.1675C109.624 80.2717 117.061 83.358 123.515 88.8289C130.109 94.2997 135.581 101.033 140.492 108.047C145.402 115.341 149.752 123.057 153.681 130.912C157.469 138.347 161.116 145.782 164.484 153.357C165.326 155.321 166.168 157.145 166.869 159.109C167.29 160.091 167.571 161.073 167.992 161.914C168.272 162.756 169.114 164.019 169.255 164.86C169.255 165.561 168.272 166.543 167.851 167.245C167.29 168.087 166.729 168.928 166.308 169.77C165.326 171.313 164.484 172.996 163.642 174.68C160.275 181.553 158.03 188.988 157.328 196.423C155.925 209.609 158.03 223.497 163.923 235.42C168.974 245.661 176.971 254.078 186.933 259.829C197.035 265.721 208.68 268.527 220.326 268.807C224.114 268.947 227.903 268.667 231.55 268.106C233.655 267.825 236.04 267.545 237.864 266.563C238.987 266.001 239.127 265.16 237.864 264.599C236.04 263.757 233.655 263.757 231.831 263.757C230.428 263.757 229.165 263.757 227.762 263.757C229.726 263.336 231.55 262.915 233.514 262.494C234.497 262.214 239.127 261.372 239.127 259.97C239.127 258.426 234.357 258.567 233.374 258.426C231.55 258.426 229.586 258.426 227.762 258.566C230.428 258.286 232.953 257.865 235.479 257.164C236.321 256.883 238.425 256.603 238.706 255.621C238.987 254.639 237.864 254.358 237.163 254.078C234.357 253.376 231.27 253.797 228.464 253.517C228.043 253.517 226.499 253.517 226.64 252.815C226.64 252.254 229.165 251.833 229.726 251.553C230.849 251.132 232.252 250.711 233.094 249.87C234.216 248.888 233.094 247.906 231.971 247.765C230.147 247.625 228.323 248.326 226.499 248.747C225.096 249.028 223.553 249.589 222.15 249.729C221.027 249.87 219.764 249.729 218.642 249.589C216.397 249.448 214.012 249.168 211.767 248.747C203.349 247.204 195.492 243.417 189.178 237.525C174.305 223.356 171.639 198.527 181.602 180.852C187.915 169.63 198.719 161.353 211.206 158.407C222.711 155.602 236.18 157.145 246.704 162.616C252.315 165.561 257.226 169.77 260.734 175.101C262.418 177.766 263.821 180.571 264.943 183.517C265.504 185.06 266.066 186.604 266.346 188.147C266.486 188.427 266.627 188.848 266.627 189.129C266.767 189.97 266.767 189.409 266.346 189.97C265.925 190.671 265.084 191.373 264.522 192.215C263.681 193.337 260.734 197.686 262.418 199.088C263.259 199.79 264.943 198.106 265.504 197.686C268.17 195.441 270.555 192.776 272.941 190.251C273.502 189.689 273.923 189.129 274.484 188.567" stroke="#161D25" stroke-width="1.5" stroke-miterlimit="10" stroke-linecap="round" stroke-linejoin="round"/>
<path d="M221.729 157.285C220.887 157.285 220.045 157.285 219.203 157.425C218.783 157.425 218.361 157.565 217.941 157.565C217.379 157.565 216.818 157.706 216.257 157.706H216.117C215.556 157.706 214.994 157.846 214.293 157.986H214.152C213.731 158.127 213.17 158.127 212.749 158.267C212.469 158.267 212.188 158.407 212.048 158.407C211.767 158.407 211.346 158.547 211.066 158.688C210.224 158.968 209.382 159.109 208.54 159.389C208.119 159.529 207.698 159.67 207.277 159.81C206.856 159.95 206.436 160.091 206.014 160.231C205.734 160.371 205.313 160.511 205.033 160.652C203.77 161.213 202.507 161.774 201.244 162.335C200.122 162.896 198.859 163.598 197.736 164.299C197.316 164.58 196.754 164.86 196.333 165.281C195.492 165.842 194.65 166.544 193.808 167.104C193.247 167.525 192.686 168.086 192.124 168.507C191.703 168.788 191.423 169.209 191.002 169.489C190.3 170.05 189.739 170.751 189.037 171.313C188.336 172.014 187.634 172.856 186.933 173.557C186.652 173.978 186.232 174.399 185.951 174.68C185.67 175.1 185.39 175.521 184.969 175.942C184.688 176.363 184.407 176.644 184.127 177.064C183.004 178.608 182.022 180.15 181.18 181.834L181.04 181.974C180.759 182.395 180.619 182.815 180.479 183.237C180.198 183.797 180.058 184.219 179.777 184.779C179.497 185.201 179.356 185.761 179.216 186.183C179.076 186.323 179.076 186.603 178.936 186.743C178.515 187.726 178.234 188.708 177.953 189.69C177.813 190.11 177.673 190.391 177.673 190.812C177.532 191.513 177.252 192.074 177.112 192.776C173.043 191.654 168.974 190.25 164.905 188.988C164.484 188.848 163.923 188.708 163.502 188.567C162.099 188.146 160.555 187.585 159.152 187.024C159.152 186.884 159.152 186.743 159.293 186.603C159.433 186.042 159.573 185.341 159.854 184.779C159.854 184.639 159.994 184.359 159.994 184.219C159.994 184.219 159.994 184.078 159.994 183.938C160.275 183.096 160.555 182.395 160.836 181.553C160.836 181.413 160.976 181.132 161.116 180.992C161.257 180.431 161.538 180.01 161.678 179.59C161.818 179.168 161.958 178.748 162.099 178.467C162.099 178.327 162.239 178.186 162.239 178.046C162.379 177.626 162.66 177.204 162.8 176.784C163.081 176.222 163.362 175.662 163.642 175.1C163.782 174.68 163.923 174.399 164.203 174.119C164.343 173.698 164.624 173.417 164.765 173.137C164.905 172.856 165.045 172.716 165.185 172.435C165.606 171.733 166.028 170.892 166.448 170.191C166.729 169.629 167.15 169.068 167.43 168.507C167.711 168.086 167.992 167.525 168.272 167.104C168.693 166.403 169.255 165.842 169.675 165.14C168.553 162.475 167.43 159.389 166.028 156.163C165.747 155.602 165.606 155.04 165.326 154.62C165.185 154.339 165.045 154.058 165.045 153.918C164.624 152.936 164.063 151.814 163.642 150.832C163.642 150.692 163.502 150.552 163.502 150.411C163.221 149.99 163.081 149.57 162.8 149.149C162.099 147.886 161.538 146.343 160.836 144.94C161.818 144.66 162.66 144.379 163.642 144.099C164.063 143.958 164.624 143.818 165.045 143.678C169.816 142.415 174.866 141.012 180.058 139.61C180.479 139.47 181.04 139.329 181.461 139.189C186.091 137.926 190.721 136.804 195.071 135.682C196.614 135.261 198.157 134.981 199.56 134.56C199.701 134.981 199.841 135.261 199.981 135.682C200.823 137.786 201.525 139.75 202.226 141.574C202.928 141.293 203.629 141.153 204.331 140.872C205.033 140.592 205.734 140.452 206.576 140.311C207.277 140.171 207.979 139.89 208.821 139.75C209.241 139.61 209.522 139.61 209.943 139.47C210.504 139.329 210.926 139.189 211.487 139.189C211.907 139.189 212.328 139.048 212.89 139.048C213.03 139.048 213.31 138.908 213.451 138.908C213.731 138.908 214.012 138.768 214.293 138.768C214.714 138.768 215.275 138.628 215.696 138.628C216.397 138.628 217.239 138.488 218.081 138.488C218.923 138.488 219.624 138.347 220.466 138.347C220.606 142.415 220.887 146.483 221.308 150.552C221.308 150.972 221.448 151.534 221.448 151.954C221.448 153.778 221.588 155.602 221.729 157.285V157.285Z" fill="#115AFB"/>
<path d="M208.26 192.496C208.26 192.496 211.206 187.586 206.295 184.5C205.594 184.079 204.892 183.799 204.331 183.518L199.28 163.598C199.981 163.178 200.683 162.756 201.384 162.476C200.262 160.091 198.157 158.408 194.65 158.408C187.213 158.408 185.249 167.245 189.178 171.454C189.739 170.893 190.3 170.472 190.862 169.911C191.703 173.137 194.089 181.975 195.071 185.622H195.211C194.65 186.324 194.089 187.165 193.527 188.147C190.16 194.459 197.316 199.65 202.226 198.107C207.137 196.704 209.241 194.319 209.241 194.319L208.26 192.496Z" stroke="#161D25" stroke-width="1.5" stroke-miterlimit="10" stroke-linecap="round" stroke-linejoin="round"/>
<path d="M201.385 198.106C203.209 195.58 199.982 191.653 198.158 190.11C196.895 188.847 198.438 187.164 199.841 187.445C201.104 187.725 200.122 184.078 199.56 183.516C199.28 183.236 199.14 183.096 198.859 182.815C196.895 183.376 193.668 184.498 192.125 187.445C188.898 193.336 197.736 207.084 201.385 198.106V198.106Z" fill="#161D25"/>
<path d="M270.135 35.9434L273.923 37.2059L278.412 38.8892L279.816 39.3101L294.828 44.6407L295.249 44.9213" stroke="#161D25" stroke-width="1.5" stroke-miterlimit="10" stroke-linecap="round" stroke-linejoin="round"/>
<path d="M55.7471 48.4282L56.0276 52.2158V53.6185L57.2904 68.6285V70.0311L57.571 73.6787" stroke="#161D25" stroke-width="1.5" stroke-miterlimit="10" stroke-linecap="round" stroke-linejoin="round"/>
<path d="M53.0811 49.1299L51.2571 52.2161L50.8362 53.198L48.7316 50.9535L47.1883 49.1299" stroke="#161D25" stroke-width="1.5" stroke-miterlimit="10" stroke-linecap="round" stroke-linejoin="round"/>
<path d="M297.494 38.749H293.004L295.249 43.3782" stroke="#161D25" stroke-width="1.5" stroke-miterlimit="10" stroke-linecap="round" stroke-linejoin="round"/>
<path d="M40.5937 73.6796V73.3987L39.8922 67.2267L37.2264 42.6777" stroke="#161D25" stroke-width="1.5" stroke-miterlimit="10" stroke-linecap="round" stroke-linejoin="round"/>
<path d="M40.5937 73.3978C40.5937 73.6782 40.5937 73.9591 40.4534 74.0993C38.7698 74.2396 37.7876 74.2396 37.7876 74.2396L34.28 42.2559C35.1218 42.2559 35.8234 42.2559 36.5249 42.3961C37.6473 50.6726 38.7698 58.9491 39.8922 67.0851C40.0325 68.4882 40.3131 69.8909 40.4534 71.2935C40.5937 71.9951 40.5937 72.6967 40.5937 73.3978V73.3978Z" fill="#161D25"/>
<path d="M307.456 30.7532C308.157 29.9115 309.28 28.2282 309.28 28.2282L296.232 24.5809L294.828 24.16L282.762 20.7934L277.711 19.3906L276.448 18.9697C276.448 19.11 276.448 19.2503 276.308 19.3906C276.168 19.8114 275.746 21.3545 275.606 21.7753C286.129 25.5628 296.652 27.8073 307.456 30.7532V30.7532Z" fill="#161D25"/>
<path d="M279.816 39.3101L278.412 38.749V52.0755H263.4V48.5686C262.979 49.2699 262.558 49.9713 261.996 50.813V52.3561H261.015C260.734 52.7768 260.313 53.3381 260.032 53.7588H261.996V68.7688H247.545C246.844 69.4703 246.282 70.0312 245.581 70.7328V85.0412H230.568V83.0772C230.147 83.3576 229.586 83.7788 229.165 84.0592V85.0412H227.762C227.06 85.4618 226.359 86.0232 225.657 86.4438H229.165V101.454H214.153V92.8967C213.731 93.1771 213.17 93.3174 212.749 93.5983V101.454H197.736V99.911C197.316 100.051 196.754 100.191 196.333 100.332V101.454H192.826C191.142 102.015 189.459 102.436 187.635 102.856H196.333V117.866H181.32V104.26C180.9 104.4 180.339 104.4 179.918 104.54V117.866H164.905V102.856H173.463C173.323 102.436 173.043 101.874 172.902 101.454H165.045V87.5661C164.484 86.7243 163.923 85.883 163.221 85.0412H148.629V70.3116C147.928 69.7508 147.226 69.1894 146.525 68.6285H132.214V60.0714C131.793 59.791 131.231 59.6508 130.811 59.3699V68.6285H115.798V53.899C113.974 53.3381 112.01 52.7768 109.905 52.3561H99.3822V50.2519C98.9609 50.1116 98.3998 50.1116 97.9791 49.9713V52.3561H82.9662V48.4282C82.5454 48.4282 81.9838 48.4283 81.563 48.288V52.3561H66.5501V48.0074C66.1294 48.0074 65.5683 48.0074 65.1475 48.0074V52.2158H55.8873L56.0276 53.6186H65.1475V68.6285H57.1497L57.2904 70.0312H65.1475V73.819H66.5501V70.0312H81.563V74.801C81.9838 74.801 82.5454 74.9412 82.9662 74.9412V70.0312H97.9791V77.1857C98.3998 77.3259 98.9609 77.3259 99.3822 77.4661V70.0312H114.395V82.5163C114.816 82.7967 115.377 82.937 115.798 83.2174V70.0312H130.811V85.0412H118.884C119.305 85.3216 119.586 85.4618 119.867 85.7428C120.147 86.0232 120.568 86.1634 120.849 86.4438H130.811V95.4216C131.231 95.983 131.793 96.4036 132.214 96.965V86.4438H147.226V101.454H136.002C136.423 101.874 136.704 102.436 137.124 102.856H147.367V117.866H147.086C147.647 118.848 148.208 119.83 148.769 120.812V119.269H163.782V134.279H155.785C156.066 134.7 156.206 135.261 156.486 135.682H163.782V150.692C163.923 151.112 164.203 151.534 164.344 151.954C165.326 151.534 166.308 151.112 167.29 150.692H165.185V135.682H180.198V146.203C180.619 146.063 181.18 145.922 181.602 145.782V135.822H196.614V141.153C197.035 141.012 197.596 140.872 198.017 140.732V135.682H200.122C199.982 135.261 199.841 134.981 199.701 134.56C199.701 134.419 199.701 134.419 199.56 134.279H198.017V119.269H213.03V123.618C213.451 123.478 214.012 123.337 214.433 123.197V119.409H224.254C225.377 118.989 226.359 118.428 227.341 118.007H214.293V102.856H229.305V116.884C229.726 116.744 230.287 116.464 230.708 116.183V102.856H245.721V107.486C246.142 107.205 246.704 106.785 247.124 106.504V102.856H252.035C252.596 102.436 253.158 101.874 253.859 101.454H247.124V86.4438H262.137V94.2994C262.558 93.8787 263.119 93.4581 263.54 92.8967V86.4438H269.713C270.135 86.0232 270.555 85.4618 270.976 85.0412H263.54V70.0312H278.553V75.5021C278.973 74.801 279.535 74.2396 279.956 73.5381V70.0312H282.341C282.622 69.6106 282.902 69.0492 283.323 68.6285H279.956V53.6186H291.601C291.882 53.1979 292.022 52.6365 292.303 52.2158H279.956V39.3101H279.816ZM81.563 68.6285H66.5501V53.6186H81.563V68.6285ZM97.9791 68.6285H82.9662V53.6186H97.9791V68.6285ZM114.395 68.6285H99.3822V53.6186H114.395V68.6285ZM147.226 85.0412H132.214V70.0312H147.226V85.0412ZM163.642 117.866H148.629V102.856H163.642V117.866ZM163.642 101.454H148.629V86.4438H163.642V101.454ZM180.058 134.279H165.045V119.269H180.058V134.279ZM196.333 134.279H181.32V119.269H196.333V134.279ZM212.749 117.866H197.736V102.856H212.749V117.866ZM245.581 101.454H230.568V86.4438H245.581V101.454ZM261.996 85.0412H246.984V70.0312H261.996V85.0412ZM278.412 68.6285H263.4V53.6186H278.412V68.6285Z" fill="url(#paint1_linear)"/>
<path d="M307.456 30.7537C296.793 27.8078 286.129 25.2828 275.466 22.3369" stroke="#161D25" stroke-width="1.5" stroke-miterlimit="10" stroke-linecap="round" stroke-linejoin="round"/>
<path opacity="0.6" d="M239.434 322.278C249.406 322.278 257.49 314.197 257.49 304.228C257.49 294.26 249.406 286.179 239.434 286.179C229.462 286.179 221.378 294.26 221.378 304.228C221.378 314.197 229.462 322.278 239.434 322.278Z" fill="#C3DDFA"/>
<defs>
<linearGradient id="paint0_linear" x1="96.5587" y1="26.9435" x2="216.869" y2="242.004" gradientUnits="userSpaceOnUse">
<stop stop-color="#007BFF"/>
<stop offset="1" stop-color="#007BFF" stop-opacity="0"/>
</linearGradient>
<linearGradient id="paint1_linear" x1="145.492" y1="32.1755" x2="174.077" y2="151.958" gradientUnits="userSpaceOnUse">
<stop stop-color="#E8F3FF"/>
<stop offset="1" stop-color="#DCE3EC" stop-opacity="0"/>
</linearGradient>
</defs>
</svg>
